<svg width="295" height="294" viewBox="0 0 295 294" fill="none" xmlns="http://www.w3.org/2000/svg">
<mask id="mask0_2779_176380" style="mask-type:alpha" maskUnits="userSpaceOnUse" x="0" y="0" width="295" height="294">
<rect x="0.5" y="0.5" width="294" height="293" rx="19.5" fill="#DDDDDD" stroke="#F0F5F9"/>
</mask>
<g mask="url(#mask0_2779_176380)">
<rect x="-1.5" y="1.5" width="68" height="192" transform="matrix(-1 0 0 1 227 103)" stroke="#EEEEEE" stroke-width="3"/>
<rect width="50" height="85" transform="matrix(-1 0 0 1 244 209)" fill="#EEEEEE"/>
<rect width="4" height="4" transform="matrix(-1 0 0 1 226 227)" fill="white"/>
<rect width="4" height="4" transform="matrix(-1 0 0 1 226 237)" fill="white"/>
<rect width="4" height="4" transform="matrix(-1 0 0 1 216 227)" fill="white"/>
<rect width="4" height="4" transform="matrix(-1 0 0 1 216 237)" fill="white"/>
<rect width="70" height="152" transform="matrix(-1 0 0 1 190 142)" fill="#C1ECC4"/>
<rect width="12" height="4" transform="matrix(-1 0 0 1 148 158)" fill="white"/>
<rect width="28" height="4" transform="matrix(-1 0 0 1 164 168)" fill="white"/>
<rect width="28" height="4" transform="matrix(-1 0 0 1 164 178)" fill="white"/>
<rect width="27" height="27" transform="matrix(-1 0 0 1 77 158)" fill="#EEEEEE"/>
<rect width="27" height="27" transform="matrix(-1 0 0 1 77 208)" fill="#EEEEEE"/>
<rect width="27" height="27" transform="matrix(-1 0 0 1 77 258)" fill="#EEEEEE"/>
<rect x="77" y="220" width="43" height="3" fill="#EEEEEE"/>
<rect x="77" y="170" width="22" height="3" fill="#EEEEEE"/>
<rect x="99" y="170" width="103" height="3" transform="rotate(90 99 170)" fill="#EEEEEE"/>
<rect x="77" y="270" width="22" height="3" fill="#EEEEEE"/>
<path fill-rule="evenodd" clip-rule="evenodd" d="M221.19 89.5C221.19 93.6816 217.682 97.1905 213.5 97.1905H202V111.81H213.5C217.682 111.81 221.19 115.318 221.19 119.5V131H235.81V119.5C235.81 115.318 239.318 111.81 243.5 111.81H255V97.1905H243.5C239.318 97.1905 235.81 93.6816 235.81 89.5V78H221.19V89.5Z" fill="#32A13C"/>
<path fill-rule="evenodd" clip-rule="evenodd" d="M227 78V79.8929H230V78H227ZM227 83.6786V87.4643H230V83.6786H227ZM227 91.25V95.0357H230V91.25H227ZM227 98.8214V102.607H230V98.8214H227ZM227 106.393V110.179H230V106.393H227ZM227 113.964V117.75H230V113.964H227ZM227 121.536V125.321H230V121.536H227ZM227 129.107V131H230V129.107H227ZM255 103H253.107V106H255V103ZM249.321 103H245.536V106H249.321V103ZM241.75 103H237.964L237.964 106H241.75V103ZM234.179 103H230.393V106H234.179V103ZM226.607 103H222.821V106H226.607V103ZM219.036 103H215.25V106H219.036V103ZM211.464 103H207.679L207.679 106H211.464V103ZM203.893 103H202V106H203.893L203.893 103Z" fill="white"/>
<rect x="226" y="103" width="5" height="3" fill="white"/>
<rect x="230" y="102" width="5" height="3" transform="rotate(90 230 102)" fill="white"/>
</g>
</svg>
