`   ```````````````````````````````<svg width="362" height="300" viewBox="0 0 362 300" fill="none" xmlns="http://www.w3.org/2000/svg">
<path d="M362 77.1432L211.999 0V300.001H362V77.1432Z" fill="#EEEEEE"/>
<rect width="12" height="12" transform="matrix(-1 0 0 1 307 109)" fill="white"/>
<rect width="12" height="12" transform="matrix(-1 0 0 1 307 139)" fill="white"/>
<rect width="12" height="12" transform="matrix(-1 0 0 1 337 109)" fill="white"/>
<rect width="12" height="12" transform="matrix(-1 0 0 1 337 169)" fill="white"/>
<rect width="12" height="12" transform="matrix(-1 0 0 1 337 139)" fill="white"/>
<rect width="12" height="12" transform="matrix(-1 0 0 1 337 199)" fill="white"/>
<path d="M119 142.24L269.001 68V300H119V142.24Z" fill="#32A13C"/>
<rect x="172" y="177" width="12" height="12" fill="white"/>
<rect x="172" y="207" width="12" height="12" fill="white"/>
<rect x="202" y="177" width="12" height="12" fill="white"/>
<rect x="38" y="235" width="6" height="65.0003" fill="#EEEEEE"/>
<circle cx="40.9982" cy="196" r="40.0002" fill="#EEEEEE"/>
</svg>
